<?xml version="1.0" encoding="UTF-8"?>
<svg width="430" height="515" xmlns="http://www.w3.org/2000/svg" xmlns:svg="http://www.w3.org/2000/svg" xmlns:html="http://www.w3.org/1999/xhtml">
 <STYLE xmlns="http://www.w3.org/1999/xhtml"/>

 <g>
  <title>Layer 1</title>
  <g id="svg_4" transform="matrix(1, 0, 0, 1, 286, 82)">
   <g id="svg_5">
    <g id="svg_6" transform="translate(0,0) scale(1.24,1)">
     <g id="svg_7">
      <path id="svg_8" d="m10,0l80,0q10,0 10,10l0,80q0,10 -10,10l-80,0q-10,0 -10,-10l0,-80q0,-10 10,-10z" fill="none"/>
      <g id="svg_9" transform="scale(0.8064516129032259,1)">
       <path id="svg_10" d="m10,0l104,0q10,0 10,10l0,80q0,10 -10,10l-104,0q-10,0 -10,-10l0,-80q0,-10 10,-10z" fill="#f6b26b"/>
       <path id="svg_11" stroke-width="2" stroke-miterlimit="10" d="m10,0m0,0l104,0q10,0 10,10l0,80q0,10 -10,10l-104,0q-10,0 -10,-10l0,-80q0,-10 10,-10z" stroke="#333333" fill="none"/>
      </g>
     </g>
    </g>
   </g>
  </g>
  <g id="svg_12" transform="matrix(1, 0, 0, 1, 20, 20)">
   <g id="svg_13">
    <g id="svg_14" transform="translate(0,0) scale(3.9,0.75)">
     <g id="svg_15">
      <path id="svg_16" d="m10,0l80,0q10,0 10,10l0,80q0,10 -10,10l-80,0q-10,0 -10,-10l0,-80q0,-10 10,-10z" fill="none"/>
      <g id="svg_17" transform="scale(0.25641025641025644,1.3333333333333333)">
       <path id="svg_18" d="m10,0l370,0q10,0 10,10l0,55q0,10 -10,10l-370,0q-10,0 -10,-10l0,-55q0,-10 10,-10z" fill="#f6b26b"/>
       <path id="svg_19" stroke-width="2" stroke-miterlimit="10" d="m10,0m0,0l370,0q10,0 10,10l0,55q0,10 -10,10l-370,0q-10,0 -10,-10l0,-55q0,-10 10,-10z" stroke="#333333" fill="none"/>
      </g>
     </g>
    </g>
   </g>
  </g>
  <g id="svg_20" transform="matrix(1,0,0,1,30,49)">
   <g id="svg_21" transform="translate(-130)">
    <g id="svg_22"/>
   </g>
   <g id="svg_23" transform="translate(-130)">
    <g id="svg_24"/>
   </g>
   <g id="svg_25" transform="translate(-130)">
    <g id="svg_26"/>
    <text id="svg_27" y="13" x="260" font-weight="700" font-style="normal" font-size="14px" font-family="&quot;Arial&quot;" fill="rgb(0, 0, 0)">User</text>
    <text id="svg_28" y="13" x="295" font-weight="700" font-style="normal" font-size="14px" font-family="&quot;Arial&quot;" fill="rgb(0, 0, 0)">Application</text>
   </g>
  </g>
  <g id="svg_29" transform="matrix(1, 0, 0, 1, 20, 109.5)">
   <g id="svg_30">
    <g id="svg_31" transform="translate(0,0) scale(2.3999999999999995,0.75)">
     <g id="svg_32">
      <path id="svg_33" d="m10,0l80,0q10,0 10,10l0,80q0,10 -10,10l-80,0q-10,0 -10,-10l0,-80q0,-10 10,-10z" fill="none"/>
      <g id="svg_34" transform="scale(0.41666666666666674,1.3333333333333333)">
       <path id="svg_35" d="m10,0l220,0q10,0 10,10l0,55q0,10 -10,10l-220,0q-10,0 -10,-10l0,-55q0,-10 10,-10z" fill="#93c47d"/>
       <path id="svg_36" stroke-width="2" stroke-miterlimit="10" d="m10,0m0,0l220,0q10,0 10,10l0,55q0,10 -10,10l-220,0q-10,0 -10,-10l0,-55q0,-10 10,-10z" stroke="#333333" fill="none"/>
      </g>
     </g>
    </g>
   </g>
  </g>
  <g id="svg_37" transform="matrix(1,0,0,1,27,139)">
   <g id="svg_38" transform="translate(-32)">
    <g id="svg_39"/>
   </g>
   <g id="svg_40" transform="translate(-32)">
    <g id="svg_41"/>
   </g>
   <g id="svg_42" transform="translate(-32)">
    <g id="svg_43"/>
    <text id="svg_44" y="13" x="64" font-weight="700" font-style="normal" font-size="14px" font-family="&quot;Arial&quot;" fill="rgb(0, 0, 0)">IBus</text>
    <text id="svg_45" y="13" x="95" font-weight="700" font-style="normal" font-size="14px" font-family="&quot;Arial&quot;" fill="rgb(0, 0, 0)">(</text>
    <text id="svg_46" y="13" x="103" font-weight="700" font-style="normal" font-size="14px" font-family="&quot;Arial&quot;" fill="rgb(0, 0, 0)">Message</text>
    <text id="svg_47" y="13" x="166" font-weight="700" font-style="normal" font-size="14px" font-family="&quot;Arial&quot;" fill="rgb(0, 0, 0)">Patterns</text>
    <text id="svg_48" y="13" x="222" font-weight="700" font-style="normal" font-size="14px" font-family="&quot;Arial&quot;" fill="rgb(0, 0, 0)">)</text>
   </g>
  </g>
  <g id="svg_49" transform="matrix(1, 0, 0, 1, 20, 200)">
   <g id="svg_50">
    <g id="svg_51" transform="translate(0,0) scale(3.9,2.1)">
     <g id="svg_52">
      <path id="svg_53" d="m10,0l80,0q10,0 10,10l0,80q0,10 -10,10l-80,0q-10,0 -10,-10l0,-80q0,-10 10,-10z" fill="none"/>
      <g id="svg_54" transform="scale(0.25641025641025644,0.47619047619047616)">
       <path id="svg_55" d="m10,0l370,0q10,0 10,10l0,190q0,10 -10,10l-370,0q-10,0 -10,-10l0,-190q0,-10 10,-10z" fill="#e06666"/>
       <path id="svg_56" stroke-width="2" stroke-miterlimit="10" d="m10,0m0,0l370,0q10,0 10,10l0,190q0,10 -10,10l-370,0q-10,0 -10,-10l0,-190q0,-10 10,-10z" stroke="#333333" fill="none"/>
      </g>
     </g>
    </g>
   </g>
  </g>
  <g id="svg_57" transform="matrix(1,0,0,1,30,202)">
   <g id="svg_58" transform="translate(-371)">
    <g id="svg_59"/>
   </g>
   <g id="svg_60" transform="translate(-371)">
    <g id="svg_61"/>
   </g>
   <g id="svg_62" transform="translate(-371)">
    <g id="svg_63"/>
    <text id="svg_64" y="13" x="508" font-weight="700" font-style="normal" font-size="14px" font-family="&quot;Arial&quot;" fill="rgb(0, 0, 0)">IAdvancedBus</text>
   </g>
   <g id="svg_65" transform="translate(-371)">
    <g id="svg_66"/>
   </g>
  </g>
  <g id="svg_67" transform="matrix(1, 0, 0, 1, 20, 420)">
   <g id="svg_68">
    <g id="svg_69" transform="translate(0,0) scale(3.9,0.75)">
     <g id="svg_70">
      <path id="svg_71" d="m10,0l80,0q10,0 10,10l0,80q0,10 -10,10l-80,0q-10,0 -10,-10l0,-80q0,-10 10,-10z" fill="none"/>
      <g id="svg_72" transform="scale(0.25641025641025644,1.3333333333333333)">
       <path id="svg_73" d="m10,0l370,0q10,0 10,10l0,55q0,10 -10,10l-370,0q-10,0 -10,-10l0,-55q0,-10 10,-10z" fill="#434343"/>
       <path id="svg_74" stroke-width="2" stroke-miterlimit="10" d="m10,0m0,0l370,0q10,0 10,10l0,55q0,10 -10,10l-370,0q-10,0 -10,-10l0,-55q0,-10 10,-10z" stroke="#333333" fill="none"/>
      </g>
     </g>
    </g>
   </g>
  </g>
  <g id="svg_75" transform="matrix(1,0,0,1,30,449)">
   <g id="svg_76" transform="translate(-131)">
    <g id="svg_77"/>
   </g>
   <g id="svg_78" transform="translate(-131)">
    <g id="svg_79"/>
   </g>
   <g id="svg_80" transform="translate(-131)">
    <g id="svg_81"/>
    <text id="svg_82" y="13" x="262" font-weight="700" font-style="normal" font-size="14px" font-family="&quot;Arial&quot;" fill="rgb(207, 226, 243)">RabbitMQ</text>
    <text id="svg_83" y="13" x="332" font-weight="700" font-style="normal" font-size="14px" font-family="&quot;Arial&quot;" fill="rgb(207, 226, 243)">Client</text>
   </g>
  </g>
  <g id="svg_84" transform="matrix(1, 0, 0, 1, 50, 335)">
   <g id="svg_85">
    <g id="svg_86" transform="translate(0,0) scale(1.4,0.6)">
     <g id="svg_87">
      <path id="svg_88" d="m10,0l80,0q10,0 10,10l0,80q0,10 -10,10l-80,0q-10,0 -10,-10l0,-80q0,-10 10,-10z" fill="none"/>
      <g id="svg_89" transform="scale(0.7142857142857143,1.6666666666666667)">
       <path id="svg_90" d="m10,0l120,0q10,0 10,10l0,40q0,10 -10,10l-120,0q-10,0 -10,-10l0,-40q0,-10 10,-10z" fill="#1155cc"/>
       <path id="svg_91" stroke-width="2" stroke-miterlimit="10" d="m10,0m0,0l120,0q10,0 10,10l0,40q0,10 -10,10l-120,0q-10,0 -10,-10l0,-40q0,-10 10,-10z" stroke="#333333" fill="none"/>
      </g>
     </g>
    </g>
   </g>
  </g>
  <g id="svg_92" transform="matrix(1,0,0,1,55,357)">
   <g id="svg_93" transform="translate(-24)">
    <g id="svg_94"/>
   </g>
   <g id="svg_95" transform="translate(-24)">
    <g id="svg_96"/>
   </g>
   <g id="svg_97" transform="translate(-24)">
    <g id="svg_98"/>
    <text id="svg_99" y="13" x="48" font-weight="700" font-style="normal" font-size="14px" font-family="&quot;Arial&quot;" fill="rgb(207, 226, 243)">Serialization</text>
   </g>
  </g>
  <g id="svg_100" transform="matrix(1, 0, 0, 1, 228, 260)">
   <g id="svg_101">
    <g id="svg_102" transform="translate(0,0) scale(1.4,0.5875)">
     <g id="svg_103">
      <path id="svg_104" d="m10,0l80,0q10,0 10,10l0,80q0,10 -10,10l-80,0q-10,0 -10,-10l0,-80q0,-10 10,-10z" fill="none"/>
      <g id="svg_105" transform="scale(0.7142857142857143,1.702127659574468)">
       <path id="svg_106" d="m10,0l120,0q10,0 10,10l0,38.75q0,10 -10,10l-120,0q-10,0 -10,-10l0,-38.75q0,-10 10,-10z" fill="#1155cc"/>
       <path id="svg_107" stroke-width="2" stroke-miterlimit="10" d="m10,0m0,0l120,0q10,0 10,10l0,38.75q0,10 -10,10l-120,0q-10,0 -10,-10l0,-38.75q0,-10 10,-10z" stroke="#333333" fill="none"/>
      </g>
     </g>
    </g>
   </g>
  </g>
  <g id="svg_108" transform="matrix(1,0,0,1,233,281)">
   <g id="svg_109" transform="translate(-17)">
    <g id="svg_110"/>
   </g>
   <g id="svg_111" transform="translate(-17)">
    <g id="svg_112"/>
   </g>
   <g id="svg_113" transform="translate(-17)">
    <g id="svg_114"/>
    <text id="svg_115" y="13" x="34" font-weight="700" font-style="normal" font-size="14px" font-family="&quot;Arial&quot;" fill="rgb(207, 226, 243)">Error</text>
    <text id="svg_116" y="13" x="72" font-weight="700" font-style="normal" font-size="14px" font-family="&quot;Arial&quot;" fill="rgb(207, 226, 243)">Handling</text>
   </g>
  </g>
  <g id="svg_117" transform="matrix(1, 0, 0, 1, 50, 258.75)">
   <g id="svg_118">
    <g id="svg_119" transform="translate(0,0) scale(1.4,0.6)">
     <g id="svg_120">
      <path id="svg_121" d="m10,0l80,0q10,0 10,10l0,80q0,10 -10,10l-80,0q-10,0 -10,-10l0,-80q0,-10 10,-10z" fill="none"/>
      <g id="svg_122" transform="scale(0.7142857142857143,1.6666666666666667)">
       <path id="svg_123" d="m10,0l120,0q10,0 10,10l0,40q0,10 -10,10l-120,0q-10,0 -10,-10l0,-40q0,-10 10,-10z" fill="#1155cc"/>
       <path id="svg_124" stroke-width="2" stroke-miterlimit="10" d="m10,0m0,0l120,0q10,0 10,10l0,40q0,10 -10,10l-120,0q-10,0 -10,-10l0,-40q0,-10 10,-10z" stroke="#333333" fill="none"/>
      </g>
     </g>
    </g>
   </g>
  </g>
  <g id="svg_125" transform="matrix(1,0,0,1,55,272)">
   <g id="svg_126" transform="translate(-23)">
    <g id="svg_127"/>
   </g>
   <g id="svg_128" transform="translate(-23)">
    <g id="svg_129"/>
   </g>
   <g id="svg_130" transform="translate(-23)">
    <g id="svg_131"/>
    <text id="svg_132" y="13" x="46" font-weight="700" font-style="normal" font-size="14px" font-family="&quot;Arial&quot;" fill="rgb(207, 226, 243)">Connenction</text>
    <text id="svg_133" y="30" x="46" font-weight="700" font-style="normal" font-size="14px" font-family="&quot;Arial&quot;" fill="rgb(207, 226, 243)">Management</text>
   </g>
  </g>
  <g id="svg_134" transform="matrix(1, 0, 0, 1, 228, 335)">
   <g id="svg_135">
    <g id="svg_136" transform="translate(0,0) scale(1.4,0.6)">
     <g id="svg_137">
      <path id="svg_138" d="m10,0l80,0q10,0 10,10l0,80q0,10 -10,10l-80,0q-10,0 -10,-10l0,-80q0,-10 10,-10z" fill="none"/>
      <g id="svg_139" transform="scale(0.7142857142857143,1.6666666666666667)">
       <path id="svg_140" d="m10,0l120,0q10,0 10,10l0,40q0,10 -10,10l-120,0q-10,0 -10,-10l0,-40q0,-10 10,-10z" fill="#1155cc"/>
       <path id="svg_141" stroke-width="2" stroke-miterlimit="10" d="m10,0m0,0l120,0q10,0 10,10l0,40q0,10 -10,10l-120,0q-10,0 -10,-10l0,-40q0,-10 10,-10z" stroke="#333333" fill="none"/>
      </g>
     </g>
    </g>
   </g>
  </g>
  <g id="svg_142" transform="matrix(1,0,0,1,233,357)">
   <g id="svg_143" transform="translate(-2)">
    <g id="svg_144"/>
   </g>
   <g id="svg_145" transform="translate(-2)">
    <g id="svg_146"/>
   </g>
   <g id="svg_147" transform="translate(-2)">
    <g id="svg_148"/>
    <text id="svg_149" y="13" x="4" font-weight="700" font-style="normal" font-size="14px" font-family="&quot;Arial&quot;" fill="rgb(207, 226, 243)">Thread</text>
    <text id="svg_150" y="13" x="54" font-weight="700" font-style="normal" font-size="14px" font-family="&quot;Arial&quot;" fill="rgb(207, 226, 243)">Marshalling</text>
   </g>
  </g>
 </g>
</svg>